<?xml version="1.0" encoding="UTF-8"?> <svg xmlns="http://www.w3.org/2000/svg" xmlns:xlink="http://www.w3.org/1999/xlink" width="233px" height="32px" viewBox="0 0 233 32" version="1.1"><!-- Generator: Sketch 63.1 (92452) - https://sketch.com --><title>logo</title><desc>Created with Sketch.</desc><defs><polygon id="path-1" points="0 31.789275 232.922963 31.789275 232.922963 0 0 0"></polygon></defs><g id="Page-1" stroke="none" stroke-width="1" fill="none" fill-rule="evenodd"><g id="services-level-2" transform="translate(-179.000000, -35.000000)"><g id="navigation-copy" transform="translate(179.000000, 27.000000)"><g id="logo" transform="translate(0.000000, 8.000000)"><path d="M45.646155,21.9440663 L49.04613,21.9440663 C51.192555,21.9440663 52.8056175,21.4344413 53.885355,20.4152288 C54.9650925,19.3960163 55.5049425,17.8731038 55.5049425,15.8477288 C55.5049425,13.8223163 54.9650925,12.3000038 53.885355,11.2801913 C52.8056175,10.2609788 51.19908,9.75079125 49.066305,9.75079125 L45.646155,9.75079125 L45.646155,21.9440663 Z M43.834905,8.20174125 L49.38843,8.20174125 C50.9979675,8.20174125 52.406355,8.50372875 53.6136675,9.10710375 C54.8209425,9.71100375 55.7564925,10.5860663 56.420355,11.7328538 C57.0848175,12.8796038 57.4164675,14.2447538 57.4164675,15.8275538 C57.4164675,18.2688038 56.6819925,20.1571913 55.21308,21.4914413 C53.7447675,22.8262538 51.6754425,23.4936788 49.00578,23.4936788 L43.834905,23.4936788 L43.834905,8.20174125 Z" id="Fill-1" fill="#002973"></path><path d="M65.102175,22.2864 C66.1350375,22.2864 66.9804375,21.9310125 67.637775,21.2197125 C68.2945125,20.508975 68.6232,19.5900375 68.6232,18.463425 C68.6232,17.3368125 68.2945125,16.4178375 67.637775,15.7065 C66.9804375,14.9958 66.1350375,14.6404125 65.102175,14.6404125 C64.0693125,14.6404125 63.2239125,14.9958 62.5671375,15.7065 C61.9098375,16.4178375 61.58115,17.3368125 61.58115,18.463425 C61.58115,19.5900375 61.9098375,20.508975 62.5671375,21.2197125 C63.2239125,21.9310125 64.0693125,22.2864 65.102175,22.2864 M64.6596,23.8152375 C63.7608,23.8152375 62.9456625,23.5939125 62.21475,23.1513375 C61.483875,22.7088 60.9036375,22.0787625 60.47475,21.2600625 C60.0451875,20.441925 59.8304625,19.5093 59.8304625,18.463425 C59.8304625,17.524275 60.0416625,16.6492125 60.464625,15.8376375 C60.8870625,15.0260625 61.4874,14.3686875 62.2651875,13.865625 C63.042975,13.362525 63.9085125,13.110975 64.8607125,13.110975 C65.6254125,13.110975 66.3260625,13.299075 66.963225,13.6746 C67.6003875,14.050125 68.113575,14.579925 68.50275,15.263925 L68.5431,13.4331375 L70.213125,13.4331375 L70.213125,23.493675 L68.5431,23.493675 L68.50275,21.66225 C68.113575,22.3599375 67.5873375,22.8933 66.923475,23.2623 C66.25905,23.6307375 65.505,23.8152375 64.6596,23.8152375" id="Fill-3" fill="#002973"></path><polygon id="Fill-5" fill="#002973" points="76.7520413 22.6684313 72.4260038 13.4331562 74.2775663 13.4331562 77.6573663 20.8174687 80.9173163 13.4331562 82.7077913 13.4331562 75.7458788 28.4230687 73.9755788 28.4230687"></polygon><path d="M87.5565488,23.8152225 C86.9259112,23.8152225 86.2988362,23.728035 85.6752863,23.553585 C85.0517738,23.3797725 84.5516738,23.15136 84.1761113,22.8695475 L84.4377487,21.3609225 C84.8536238,21.6693975 85.3466363,21.917385 85.9167487,22.1054475 C86.4868988,22.29291 87.0332737,22.3866225 87.5565488,22.3866225 C88.3075987,22.3866225 88.8913988,22.2561225 89.3072738,21.994485 C89.7225488,21.732885 89.9307863,21.373935 89.9307863,20.91831 C89.9307863,20.596185 89.8607363,20.3416725 89.7195863,20.15361 C89.5789613,19.9655475 89.3374988,19.7910975 88.9951988,19.630335 C88.6534613,19.4695725 88.1533613,19.29516 87.4960238,19.1070975 C86.3694112,18.7719225 85.5649613,18.36966 85.0820363,17.8998225 C84.5991487,17.4305475 84.3576487,16.820085 84.3576487,16.069035 C84.3576487,15.1571475 84.6958238,14.43576 85.3733363,13.90596 C86.0508488,13.3761975 86.9733487,13.1109975 88.1402737,13.1109975 C88.6765987,13.1109975 89.2265738,13.185135 89.7901613,13.332285 C90.3531488,13.480035 90.8165362,13.674585 91.1784113,13.9160475 L90.8965988,15.364785 C90.0381488,14.8148475 89.1061238,14.53956 88.0999613,14.53956 C87.4290113,14.53956 86.9128613,14.6576475 86.5503488,14.891985 C86.1884737,15.1269225 86.0074988,15.458535 86.0074988,15.88806 C86.0074988,16.303935 86.1611738,16.6326225 86.4702488,16.8740475 C86.7787613,17.11551 87.3482738,17.35641 88.1806612,17.597835 C89.4543488,17.97396 90.3531488,18.3999225 90.8764238,18.8757225 C91.3996613,19.352085 91.6612988,19.9993725 91.6612988,20.8174725 C91.6612988,21.716235 91.2857738,22.44066 90.5347238,22.9905975 C89.7830363,23.540535 88.7905238,23.8152225 87.5565488,23.8152225" id="Fill-7" fill="#002973"></path><path d="M99.4882125,22.2864 C100.521075,22.2864 101.365875,21.9310125 102.02325,21.2197125 C102.68055,20.508975 103.009238,19.5900375 103.009238,18.463425 C103.009238,17.3368125 102.68055,16.4178375 102.02325,15.7065 C101.365875,14.9958 100.521075,14.6404125 99.4882125,14.6404125 C98.45535,14.6404125 97.60995,14.9958 96.953175,15.7065 C96.295875,16.4178375 95.9671875,17.3368125 95.9671875,18.463425 C95.9671875,19.5900375 96.295875,20.508975 96.953175,21.2197125 C97.60995,21.9310125 98.45535,22.2864 99.4882125,22.2864 L99.4882125,22.2864 Z M94.3772625,13.4331375 L95.9874,13.4331375 L96.0271125,15.384975 C96.402675,14.6605875 96.929475,14.1005625 97.6069875,13.7048625 C98.2839,13.309125 99.0586875,13.110975 99.9307875,13.110975 C100.829588,13.110975 101.644125,13.3323 102.3756,13.7754375 C103.106513,14.21805 103.686713,14.84865 104.116238,15.6667875 C104.5452,16.4848875 104.759925,17.416875 104.759925,18.463425 C104.759925,19.4025375 104.548725,20.2776 104.126363,21.089175 C103.703325,21.9007875 103.102988,22.5580875 102.325163,23.0611875 C101.546813,23.5636875 100.681838,23.8152375 99.7296375,23.8152375 C98.938275,23.8152375 98.2269375,23.6307375 97.5968625,23.2623 C96.9662625,22.8933 96.4631625,22.3665 96.0876375,21.6824625 L96.0876375,28.4230875 L94.3772625,28.4230875 L94.3772625,13.4331375 Z" id="Fill-9" fill="#002973"></path><path d="M107.67702,13.4331413 L109.28712,13.4331413 L109.307295,15.5255663 C109.588507,14.8148663 109.997858,14.2648913 110.534145,13.8757163 C111.07047,13.4871038 111.681532,13.2925537 112.365533,13.2925537 C112.566682,13.2925537 112.78437,13.3156538 113.019345,13.3625288 C113.253683,13.4100037 113.431658,13.4604413 113.55267,13.5138038 L113.371695,15.1233413 C112.981958,14.9625788 112.579695,14.8818788 112.16442,14.8818788 C111.29232,14.8818788 110.611282,15.2070038 110.121833,15.8577787 C109.63242,16.5086287 109.387357,17.4038663 109.387357,18.5440913 L109.387357,23.4936788 L107.67702,23.4936788 L107.67702,13.4331413 Z" id="Fill-11" fill="#002973"></path><mask id="mask-2" fill="white"><use xlink:href="#path-1"></use></mask><g id="Clip-14"></g><path d="M116.067488,23.493675 L117.777863,23.493675 L117.777863,13.4331375 L116.067488,13.4331375 L116.067488,23.493675 Z M116.912887,10.736775 C116.577112,10.736775 116.298862,10.6228875 116.077613,10.3950375 C115.856288,10.167225 115.745963,9.878925 115.745963,9.5294625 C115.745963,9.1812375 115.856288,8.8929 116.077613,8.6644875 C116.298862,8.4367125 116.577112,8.3221875 116.912887,8.3221875 C117.2481,8.3221875 117.52635,8.4367125 117.747637,8.6644875 C117.968887,8.8929 118.07985,9.1812375 118.07985,9.5294625 C118.07985,9.878925 117.968887,10.167225 117.747637,10.3950375 C117.52635,10.6228875 117.2481,10.736775 116.912887,10.736775 L116.912887,10.736775 Z" id="Fill-13" fill="#002973" mask="url(#mask-2)"></path><path d="M121.399751,13.4331413 L123.009889,13.4331413 L123.030026,15.1838662 C123.311239,14.5265287 123.747289,14.0169037 124.337576,13.6544287 C124.927864,13.2925537 125.611901,13.1109787 126.389651,13.1109787 C127.583914,13.1109787 128.502851,13.4835788 129.146539,14.2281038 C129.790226,14.9726663 130.112389,16.0357538 130.112389,17.4168787 L130.112389,23.4936788 L128.402014,23.4936788 L128.402014,17.7188662 C128.402014,16.6723537 128.203864,15.8946037 127.808726,15.3849787 C127.412464,14.8753537 126.805526,14.6202412 125.987426,14.6202412 C125.088626,14.6202412 124.384451,14.9157038 123.874826,15.5054288 C123.364601,16.0957162 123.110089,16.9072913 123.110089,17.9401538 L123.110089,23.4936788 L121.399751,23.4936788 L121.399751,13.4331413 Z" id="Fill-15" fill="#002973" mask="url(#mask-2)"></path><path d="M138.240656,22.2864 C139.273519,22.2864 140.118919,21.9310125 140.776256,21.2197125 C141.432994,20.508975 141.761681,19.5900375 141.761681,18.463425 C141.761681,17.3368125 141.432994,16.4178375 140.776256,15.7065 C140.118919,14.9958 139.273519,14.6404125 138.240656,14.6404125 C137.207794,14.6404125 136.362394,14.9958 135.705656,15.7065 C135.048319,16.4178375 134.719631,17.3368125 134.719631,18.463425 C134.719631,19.5900375 135.048319,20.508975 135.705656,21.2197125 C136.362394,21.9310125 137.207794,22.2864 138.240656,22.2864 M137.878781,28.604025 C137.140744,28.604025 136.419919,28.5203625 135.715744,28.3525125 C135.011569,28.1845875 134.478206,27.9668625 134.116331,27.6987 L134.337581,26.1699 C134.793206,26.4511125 135.333094,26.675925 135.957169,26.8438125 C136.580719,27.0111 137.221444,27.0953625 137.878781,27.0953625 C139.153106,27.0953625 140.098781,26.7661125 140.715769,26.1093375 C141.332756,25.4520375 141.641269,24.445875 141.641269,23.09085 L141.641269,21.66225 C141.252056,22.3599375 140.725819,22.8933 140.061956,23.2623 C139.397531,23.6307375 138.643481,23.8152375 137.798081,23.8152375 C136.899281,23.8152375 136.084144,23.5939125 135.353269,23.1513375 C134.622356,22.7088 134.042156,22.0787625 133.613231,21.2600625 C133.183669,20.441925 132.968944,19.5093 132.968944,18.463425 C132.968944,17.524275 133.180144,16.6492125 133.603144,15.8376375 C134.025544,15.0260625 134.625919,14.3686875 135.403706,13.865625 C136.181456,13.362525 137.047031,13.110975 137.999231,13.110975 C138.763931,13.110975 139.464581,13.299075 140.101744,13.6746 C140.738869,14.050125 141.252056,14.579925 141.641269,15.263925 L141.681581,13.4331375 L143.351606,13.4331375 L143.351606,22.9099125 C143.351606,24.787575 142.891819,26.20665 141.973481,27.1653375 C141.054506,28.1246625 139.689431,28.604025 137.878781,28.604025" id="Fill-16" fill="#002973" mask="url(#mask-2)"></path><path d="M153.567683,16.1496938 L155.921745,16.1496938 C157.101758,16.1496938 158.007082,15.8744063 158.63832,15.3244688 C159.268358,14.7744938 159.583958,13.9830938 159.583958,12.9502313 C159.583958,11.9173688 159.264795,11.1194063 158.628195,10.5558188 C157.990432,9.99223125 157.088708,9.71101875 155.921745,9.71101875 L153.567683,9.71101875 L153.567683,16.1496938 Z M151.816958,8.20175625 L156.24387,8.20175625 C157.785758,8.20175625 159.036982,8.63424375 159.99627,9.49921875 C160.954995,10.3647938 161.43492,11.4949688 161.43492,12.8897063 C161.43492,13.8021188 161.22372,14.6172938 160.800758,15.3345563 C160.37832,16.0523813 159.774983,16.6189688 158.990107,17.0348438 C158.205232,17.4506813 157.28982,17.6583188 156.24387,17.6583188 L153.567683,17.6583188 L153.567683,23.4936938 L151.816958,23.4936938 L151.816958,8.20175625 Z" id="Fill-17" fill="#002973" mask="url(#mask-2)"></path><path d="M168.114457,22.2864 C169.14732,22.2864 169.99272,21.9310125 170.650058,21.2197125 C171.306795,20.508975 171.635482,19.5900375 171.635482,18.463425 C171.635482,17.3368125 171.306795,16.4178375 170.650058,15.7065 C169.99272,14.9958 169.14732,14.6404125 168.114457,14.6404125 C167.081595,14.6404125 166.236195,14.9958 165.579457,15.7065 C164.92212,16.4178375 164.593432,17.3368125 164.593432,18.463425 C164.593432,19.5900375 164.92212,20.508975 165.579457,21.2197125 C166.236195,21.9310125 167.081595,22.2864 168.114457,22.2864 M167.671883,23.8152375 C166.773082,23.8152375 165.957945,23.5939125 165.22707,23.1513375 C164.496157,22.7088 163.915957,22.0787625 163.487032,21.2600625 C163.05747,20.441925 162.842745,19.5093 162.842745,18.463425 C162.842745,17.524275 163.053945,16.6492125 163.476945,15.8376375 C163.899345,15.0260625 164.49972,14.3686875 165.277507,13.865625 C166.055257,13.362525 166.920832,13.110975 167.873032,13.110975 C168.637732,13.110975 169.338382,13.299075 169.975545,13.6746 C170.61267,14.050125 171.125857,14.579925 171.51507,15.263925 L171.555382,13.4331375 L173.225408,13.4331375 L173.225408,23.493675 L171.555382,23.493675 L171.51507,21.66225 C171.125857,22.3599375 170.59962,22.8933 169.935757,23.2623 C169.271332,23.6307375 168.517282,23.8152375 167.671883,23.8152375" id="Fill-18" fill="#002973" mask="url(#mask-2)"></path><path d="M176.846685,13.4331413 L178.456823,13.4331413 L178.476998,15.5255663 C178.758173,14.8148663 179.167523,14.2648913 179.70381,13.8757163 C180.240135,13.4871038 180.851198,13.2925537 181.535235,13.2925537 C181.736347,13.2925537 181.954073,13.3156538 182.18901,13.3625288 C182.423348,13.4100037 182.601323,13.4604413 182.722373,13.5138038 L182.541398,15.1233413 C182.151623,14.9625788 181.749397,14.8818788 181.334123,14.8818788 C180.462022,14.8818788 179.780948,15.2070038 179.291497,15.8577787 C178.802085,16.5086287 178.55706,17.4038663 178.55706,18.5440913 L178.55706,23.4936788 L176.846685,23.4936788 L176.846685,13.4331413 Z" id="Fill-19" fill="#002973" mask="url(#mask-2)"></path><polygon id="Fill-20" fill="#002973" mask="url(#mask-2)" points="186.826519 14.90205 184.512806 14.90205 184.512806 13.4331375 186.826519 13.4331375 186.826519 10.535625 188.536894 10.535625 188.536894 13.4331375 191.353744 13.4331375 191.353744 14.90205 188.536894 14.90205 188.536894 23.493675 186.826519 23.493675"></polygon><path d="M193.768305,13.4331413 L195.378405,13.4331413 L195.39858,15.1838662 C195.679792,14.5265287 196.115842,14.0169037 196.70613,13.6544287 C197.296417,13.2925537 197.980455,13.1109787 198.758205,13.1109787 C199.95243,13.1109787 200.871405,13.4835788 201.515093,14.2281038 C202.15878,14.9726663 202.480943,16.0357538 202.480943,17.4168787 L202.480943,23.4936788 L200.770567,23.4936788 L200.770567,17.7188662 C200.770567,16.6723537 200.57238,15.8946037 200.17728,15.3849787 C199.781017,14.8753537 199.17408,14.6202412 198.35598,14.6202412 C197.45718,14.6202412 196.753005,14.9157038 196.24338,15.5054288 C195.733155,16.0957162 195.478643,16.9072913 195.478643,17.9401538 L195.478643,23.4936788 L193.768305,23.4936788 L193.768305,13.4331413 Z" id="Fill-21" fill="#002973" mask="url(#mask-2)"></path><path d="M213.22491,17.6583375 C213.17151,16.6794375 212.886173,15.9213 212.370023,15.384975 C211.853273,14.84865 211.13901,14.579925 210.22716,14.579925 C209.35506,14.579925 208.637798,14.8516125 208.074173,15.3950625 C207.510585,15.937875 207.168885,16.692525 207.047835,17.6583375 L213.22491,17.6583375 Z M210.911198,23.8152375 C209.193698,23.8152375 207.83571,23.3394375 206.836635,22.3866375 C205.836997,21.4344375 205.337498,20.1405375 205.337498,18.5037375 C205.337498,17.497575 205.542173,16.585725 205.951523,15.767025 C206.360273,14.948925 206.947598,14.301675 207.711698,13.825275 C208.476435,13.3495125 209.348535,13.110975 210.327398,13.110975 C211.682423,13.110975 212.778773,13.5672 213.617648,14.47965 C214.45536,15.3915 214.87476,16.585725 214.87476,18.0611625 C214.87476,18.2356125 214.871798,18.396375 214.86471,18.5440875 C214.858148,18.6918375 214.84806,18.845475 214.835048,19.0068375 L207.027698,19.0068375 C207.14871,20.0664 207.550935,20.877975 208.23501,21.441 C208.91901,22.0045875 209.837985,22.2864 210.99186,22.2864 C212.171873,22.2864 213.325748,22.0117125 214.45236,21.4611375 L214.653473,22.9099125 C214.197285,23.191725 213.637823,23.412975 212.97336,23.573775 C212.309498,23.7351375 211.621898,23.8152375 210.911198,23.8152375 L210.911198,23.8152375 Z" id="Fill-22" fill="#002973" mask="url(#mask-2)"></path><path d="M217.993523,13.4331413 L219.60366,13.4331413 L219.623835,15.5255663 C219.905048,14.8148663 220.314398,14.2648913 220.850685,13.8757163 C221.386973,13.4871038 221.998035,13.2925537 222.682073,13.2925537 C222.883223,13.2925537 223.10091,13.3156538 223.335848,13.3625288 C223.570185,13.4100037 223.74816,13.4604413 223.86921,13.5138038 L223.688235,15.1233413 C223.298498,14.9625788 222.896235,14.8818788 222.48096,14.8818788 C221.60886,14.8818788 220.927822,15.2070038 220.438373,15.8577787 C219.94896,16.5086287 219.703898,17.4038663 219.703898,18.5440913 L219.703898,23.4936788 L217.993523,23.4936788 L217.993523,13.4331413 Z" id="Fill-23" fill="#002973" mask="url(#mask-2)"></path><path d="M228.818205,23.8152225 C228.187568,23.8152225 227.560493,23.728035 226.936943,23.553585 C226.31343,23.3797725 225.81333,23.15136 225.437768,22.8695475 L225.699405,21.3609225 C226.11528,21.6693975 226.608293,21.917385 227.178405,22.1054475 C227.748555,22.29291 228.29493,22.3866225 228.818205,22.3866225 C229.569255,22.3866225 230.153055,22.2561225 230.56893,21.994485 C230.984205,21.732885 231.192443,21.373935 231.192443,20.91831 C231.192443,20.596185 231.122393,20.3416725 230.981243,20.15361 C230.840618,19.9655475 230.599155,19.7910975 230.256855,19.630335 C229.915118,19.4695725 229.415018,19.29516 228.75768,19.1070975 C227.631068,18.7719225 226.826617,18.36966 226.343693,17.8998225 C225.860805,17.4305475 225.619305,16.820085 225.619305,16.069035 C225.619305,15.1571475 225.95748,14.43576 226.634993,13.90596 C227.312505,13.3761975 228.235005,13.1109975 229.40193,13.1109975 C229.938255,13.1109975 230.48823,13.185135 231.051818,13.332285 C231.614805,13.480035 232.078193,13.674585 232.440067,13.9160475 L232.158255,15.364785 C231.299805,14.8148475 230.36778,14.53956 229.361618,14.53956 C228.690668,14.53956 228.174518,14.6576475 227.812005,14.891985 C227.45013,15.1269225 227.269155,15.458535 227.269155,15.88806 C227.269155,16.303935 227.42283,16.6326225 227.731905,16.8740475 C228.040418,17.11551 228.60993,17.35641 229.442318,17.597835 C230.716005,17.97396 231.614805,18.3999225 232.13808,18.8757225 C232.661318,19.352085 232.922955,19.9993725 232.922955,20.8174725 C232.922955,21.716235 232.54743,22.44066 231.79638,22.9905975 C231.044692,23.540535 230.05218,23.8152225 228.818205,23.8152225" id="Fill-24" fill="#002973" mask="url(#mask-2)"></path><path d="M31.7942288,15.8947388 C31.7942288,24.6591263 24.6638663,31.7892637 15.8995163,31.7892637 L14.0947538,31.7892637 L14.0947538,23.7570637 L15.8995163,23.7570637 C20.2349288,23.7570637 23.7620288,20.2301513 23.7620288,15.8947388 C23.7620288,11.5593262 20.2349288,8.03222625 15.8995163,8.03222625 L8.03220375,8.03222625 L8.03220375,27.8845388 L3.75e-06,27.8845388 L3.75e-06,2.625e-05 L15.8995163,2.625e-05 C24.6638663,2.625e-05 31.7942288,7.13035125 31.7942288,15.8947388" id="Fill-25" fill="#002973" mask="url(#mask-2)"></path><polygon id="Fill-26" fill="#8FC7CF" mask="url(#mask-2)" points="0 31.789275 8.0321625 31.789275 8.0321625 30.848925 0 30.848925"></polygon><polygon id="Fill-27" fill="#007E8F" mask="url(#mask-2)" points="0 30.2565 8.0321625 30.2565 8.0321625 28.476975 0 28.476975"></polygon></g></g></g></g></svg> 